<svg xmlns="http://www.w3.org/2000/svg" viewBox="0 0 2400 2300"><path d="M336 1346 0 386c0-2 103-50 107-50l744 1895c1 1-174 73-179 73l-336-958z"/><path fill="#057" d="M479 1092 192 359c8-13 104-85 157-118C575 98 871 28 1166 47h10l238 535 237 534a127377 127377 0 0 0-235-874v-3l17-3c223-49 370-114 490-218a405 405 0 0 0 20-18l457 1151c0 3-14 27-30 47-137 176-482 362-734 397-156 21-262-16-311-107-7-13-7-12 9-28 84-81 212-148 266-139 49 8 40 66-28 176l-7 12 5-7c213-225 189-339-50-243a2110 2110 0 0 0-752 565l-289-732z"/></svg>
